HIERARCHY
ROOT Pelvis
{
	OFFSET 0.000000 0.000000 0.000000
	CHANNELS 6 Xposition Yposition Zposition Xrotation Yrotation Zrotation
	JOINT LeftUpLeg_virtual
	{
		OFFSET 0.000000 0.000000 0.000000
		CHANNELS 3 Xrotation Yrotation Zrotation
		JOINT LeftUpLeg
		{
			OFFSET 18.735201 -5.666702 -4.541200
			CHANNELS 3 Xrotation Yrotation Zrotation
			JOINT LeftLeg
			{
				OFFSET -0.021200 -31.938179 0.493100
				CHANNELS 3 Xrotation Yrotation Zrotation
				JOINT LeftFoot
				{
					OFFSET 0.021200 -31.938179 -4.336299
					CHANNELS 3 Xrotation Yrotation Zrotation
					JOINT LeftToeBase
					{
						OFFSET 0.943001 -26.722000 15.023500
						CHANNELS 3 Xrotation Yrotation Zrotation
						End Site
						{
							OFFSET 0 0 0
						}
					}
				}
			}
		}
	}
	JOINT RightUpLeg_virtual
	{
		OFFSET 0.000000 0.000000 0.000000
		CHANNELS 3 Xrotation Yrotation Zrotation
		JOINT RightUpLeg
		{
			OFFSET -18.735201 -5.666702 -4.541200
			CHANNELS 3 Xrotation Yrotation Zrotation
			JOINT RightLeg
			{
				OFFSET 0.018946 -31.938133 0.493100
				CHANNELS 3 Xrotation Yrotation Zrotation
				JOINT RightFoot
				{
					OFFSET -0.018946 -31.938126 -4.336299
					CHANNELS 3 Xrotation Yrotation Zrotation
					JOINT RightToeBase
					{
						OFFSET -0.943001 -26.722004 15.023500
						CHANNELS 3 Xrotation Yrotation Zrotation
						End Site
						{
							OFFSET 0 0 0
						}
					}
				}
			}
		}
	}
	JOINT Hips_virtual
	{
		OFFSET 0.000000 0.000000 0.000000
		CHANNELS 3 Xrotation Yrotation Zrotation
		JOINT Hips
		{
			OFFSET -0.000000 -0.000000 -0.000000
			CHANNELS 3 Xrotation Yrotation Zrotation
			JOINT Spine
			{
				OFFSET 0.000000 10.199997 -0.299500
				CHANNELS 3 Xrotation Yrotation Zrotation
				JOINT Spine1
				{
					OFFSET 0.000000 11.900002 -1.516600
					CHANNELS 3 Xrotation Yrotation Zrotation
					JOINT Spine2
					{
						OFFSET 0.000000 13.600006 -2.842500
						CHANNELS 3 Xrotation Yrotation Zrotation
						JOINT Neck_virtual
						{
							OFFSET 0.000000 0.000000 0.000000
							CHANNELS 3 Xrotation Yrotation Zrotation
							JOINT Neck
							{
								OFFSET 0.000000 9.624100 -2.890100
								CHANNELS 3 Xrotation Yrotation Zrotation
								JOINT Head
								{
									OFFSET 0.000000 14.068802 -1.351900
									CHANNELS 3 Xrotation Yrotation Zrotation
									End Site
									{
										OFFSET 0 0 0
									}
								}
							}
						}
						JOINT LeftShoulder_virtual
						{
							OFFSET 0.000000 0.000000 0.000000
							CHANNELS 3 Xrotation Yrotation Zrotation
							JOINT LeftShoulder
							{
								OFFSET 15.263000 10.923401 -0.547700
								CHANNELS 3 Xrotation Yrotation Zrotation
								JOINT LeftArm
								{
									OFFSET 25.438599 -2.830597 -13.032500
									CHANNELS 3 Xrotation Yrotation Zrotation
									JOINT LeftForeArm
									{
										OFFSET 29.960503 0.000000 0.000000
										CHANNELS 3 Xrotation Yrotation Zrotation
										JOINT LeftHand
										{
											OFFSET 27.849251 0.000000 0.000000
											CHANNELS 3 Xrotation Yrotation Zrotation
											End Site
											{
												OFFSET 0 0 0
											}
										}
									}
								}
							}
						}
						JOINT RightShoulder_virtual
						{
							OFFSET 0.000000 0.000000 0.000000
							CHANNELS 3 Xrotation Yrotation Zrotation
							JOINT RightShoulder
							{
								OFFSET -15.263000 10.923401 -0.547700
								CHANNELS 3 Xrotation Yrotation Zrotation
								JOINT RightArm
								{
									OFFSET -25.438599 -2.830597 -13.032500
									CHANNELS 3 Xrotation Yrotation Zrotation
									JOINT RightForeArm
									{
										OFFSET -29.960503 0.000000 0.000000
										CHANNELS 3 Xrotation Yrotation Zrotation
										JOINT RightHand
										{
											OFFSET -27.849251 0.000000 0.000000
											CHANNELS 3 Xrotation Yrotation Zrotation
											End Site
											{
												OFFSET 0 0 0
											}
										}
									}
								}
							}
						}
					}
				}
			}
		}
	}
}
MOTION
Frames: 13
Frame Time: 0.03333333
-0.675751 91.880424 1.196871 0.000000 0.000000 0.000000 8.241474 -11.983968 -0.658355 -30.638552 8.558230 14.834780 37.692115 3.775852 -1.990040 -10.902895 4.692457 -5.663287 0.000000 0.000000 0.000000 7.924636 -7.474697 2.034960 -19.784196 -7.699073 -13.456280 31.959965 -1.369344 -1.021466 -16.612799 -4.875010 8.690642 0.000000 0.000000 0.000000 2.090623 -3.710842 -0.037778 2.367974 -8.736380 -1.906250 8.433270 4.726655 0.920085 2.630962 2.735007 0.576025 0.000000 0.000000 0.000000 -3.190125 2.830720 -0.521629 -3.598069 1.016712 -0.337371 0.000000 0.000000 0.000000 -2.284985 3.429173 -0.137029 -3.038258 0.570159 -5.903638 -3.915851 5.234459 -56.392801 -1.219358 -28.293611 -6.865246 0.000000 0.000000 0.000000 -2.109380 1.392287 0.962523 -4.944923 8.030376 10.635750 1.256825 -1.362742 52.981019 2.170898 30.338286 5.053370 0.000000 0.000000 0.000000 
-0.548557 91.817566 0.563856 0.000000 0.000000 0.000000 8.144590 -14.054164 -0.981876 -30.554011 8.162738 14.158965 37.231873 4.023229 -2.193804 -11.149869 5.060599 -5.873354 0.000000 0.000000 0.000000 7.420487 -8.775248 1.706361 -20.552128 -7.910450 -13.946803 31.789650 -1.574052 -1.340114 -16.858850 -4.918445 7.981809 0.000000 0.000000 0.000000 1.115241 -3.563279 -1.116262 7.845674 -8.865151 -1.091525 8.541921 4.647431 0.927053 2.729893 2.977498 0.922747 0.000000 0.000000 0.000000 -3.241213 2.971439 -0.808154 -3.548464 1.076945 -0.372595 0.000000 0.000000 0.000000 -3.275613 3.591073 0.072352 -2.822722 1.327733 -5.571308 -3.247632 6.661391 -57.649467 -0.086922 -27.441670 -6.523325 0.000000 0.000000 0.000000 -2.720388 1.874913 0.878734 -4.894280 8.756086 11.756487 3.238915 -0.971003 53.712847 2.337365 31.319894 5.456442 0.000000 0.000000 0.000000 
-1.291240 91.632385 1.614363 0.000000 0.000000 0.000000 8.458799 -14.608894 -0.988598 -30.053669 8.110518 13.986211 37.238519 4.204361 -2.468012 -11.054446 5.397560 -6.221820 0.000000 0.000000 0.000000 7.697710 -8.112847 1.907471 -20.127470 -7.804933 -13.678525 32.642406 -1.495378 -1.321584 -16.115871 -4.782199 8.037600 0.000000 0.000000 0.000000 2.113892 -2.354392 -0.419598 5.391357 -7.581628 -2.744683 8.566821 4.251493 0.384273 1.743861 2.825962 1.118088 0.000000 0.000000 0.000000 -3.523459 2.834957 -0.677813 -3.772515 0.941549 -0.341522 0.000000 0.000000 0.000000 -4.148027 3.970914 0.366552 -3.249333 0.371650 -5.333827 -3.235670 6.266397 -58.235736 0.488296 -26.537781 -6.283644 0.000000 0.000000 0.000000 -3.340812 1.947840 0.693524 -4.890149 7.953075 11.560671 5.482687 -1.053671 55.415995 3.062905 27.416750 5.549543 0.000000 0.000000 0.000000 
-0.222596 91.585518 1.887094 0.000000 0.000000 0.000000 8.353264 -14.265301 0.100269 -30.612983 7.806318 15.368571 36.996160 4.058449 -2.437133 -11.283296 5.237384 -6.297866 0.000000 0.000000 0.000000 7.699589 -7.227652 2.327526 -19.962884 -7.652536 -13.036696 32.982560 -1.658713 -1.079182 -15.742420 -5.050970 8.312041 0.000000 0.000000 0.000000 1.315504 -3.067919 -0.855068 6.971558 -10.168803 -2.350726 7.855436 3.659269 0.885779 2.070804 3.054938 0.700378 0.000000 0.000000 0.000000 -3.520035 2.623149 -0.783499 -3.818652 0.851915 -0.417363 0.000000 0.000000 0.000000 -3.842786 3.859477 0.298821 -3.564016 0.733715 -4.455700 -2.542054 4.681578 -59.089599 0.393370 -28.019864 -6.462173 0.000000 0.000000 0.000000 -3.607443 2.213824 0.518879 -5.706267 7.543543 12.538721 4.920986 -2.800283 57.096639 2.527521 28.171411 6.460540 0.000000 0.000000 0.000000 
0.163285 91.582939 1.742718 0.000000 0.000000 0.000000 8.704410 -16.504312 0.487354 -30.013654 7.206340 15.339495 36.956815 4.587169 -2.318062 -11.269341 5.709423 -5.783850 0.000000 0.000000 0.000000 7.817863 -6.151628 2.327126 -19.666744 -7.404213 -12.847119 32.983243 -1.497093 -0.855261 -15.805531 -5.009296 8.782303 0.000000 0.000000 0.000000 3.102264 -3.641697 -0.914043 5.461622 -14.189715 -1.231537 8.222087 3.874755 0.196119 1.497681 2.956074 0.805960 0.000000 0.000000 0.000000 -3.507405 2.465529 -1.101295 -4.047839 0.725415 -0.613164 0.000000 0.000000 0.000000 -4.093423 3.782489 0.369170 -3.523222 1.032514 -4.849433 -1.179795 5.237040 -58.780786 0.460230 -27.245869 -6.588438 0.000000 0.000000 0.000000 -4.137097 2.172522 0.423957 -5.710148 7.752192 11.661250 4.129174 -2.897279 55.679883 2.517162 30.057620 5.701725 0.000000 0.000000 0.000000 
0.512340 91.637123 2.678148 0.000000 0.000000 0.000000 8.473714 -16.016218 0.300685 -30.262615 7.323055 15.258125 37.371387 4.463119 -2.551069 -10.806049 5.698937 -6.230506 0.000000 0.000000 0.000000 8.349619 -6.016807 2.255960 -18.919074 -7.434721 -12.904387 32.300801 -1.794235 -0.714655 -16.262814 -5.418277 8.790131 0.000000 0.000000 0.000000 0.732203 -5.574758 -0.298395 4.882918 -7.142652 -1.448929 7.887666 3.122155 0.046541 2.251769 3.101289 0.642332 0.000000 0.000000 0.000000 -3.903025 2.173163 -1.123229 -4.009743 0.469440 -0.664314 0.000000 0.000000 0.000000 -4.264059 3.954329 0.409983 -3.404432 1.908608 -3.850873 -0.905095 6.852983 -59.107781 0.737065 -26.779240 -6.553286 0.000000 0.000000 0.000000 -3.970310 2.112165 0.165260 -5.435535 6.809185 10.775428 4.286418 -2.377622 56.584965 3.173676 28.591614 5.790053 0.000000 0.000000 0.000000 
1.275538 91.522804 2.350231 0.000000 0.000000 0.000000 8.555825 -16.149562 0.263319 -30.226517 7.324759 15.225576 37.854449 4.600813 -2.606868 -10.410603 5.854388 -6.238449 0.000000 0.000000 0.000000 8.726591 -6.045848 2.301984 -18.422260 -7.495772 -12.853591 32.622961 -1.523252 -0.315818 -15.973880 -5.343723 9.614360 0.000000 0.000000 0.000000 1.925325 -5.208095 0.304786 3.437071 -8.201994 -0.961048 7.184978 3.733667 -0.032371 2.205059 2.600003 0.642705 0.000000 0.000000 0.000000 -3.819480 2.160949 -1.069158 -4.144128 0.335314 -0.736340 0.000000 0.000000 0.000000 -4.472067 4.208186 0.434672 -3.327228 1.721880 -4.107374 1.632234 6.506301 -59.682432 1.113847 -28.064107 -7.009237 0.000000 0.000000 0.000000 -4.514174 2.244785 -0.003760 -5.722008 5.553121 10.411425 4.395152 -2.877072 58.325458 2.976213 28.058333 6.565093 0.000000 0.000000 0.000000 
1.625757 92.001022 1.522585 0.000000 0.000000 0.000000 8.701874 -15.305737 0.464508 -30.409904 7.513298 15.678508 38.703957 4.538364 -2.556956 -9.876038 5.757538 -6.191880 0.000000 0.000000 0.000000 8.825667 -7.012571 1.950735 -18.396510 -7.732782 -13.380010 32.972168 -1.434854 0.137957 -15.690949 -5.443970 10.410677 0.000000 0.000000 0.000000 2.795926 -6.424052 0.239511 4.055421 -8.240065 -0.878989 8.155061 3.912851 0.255483 1.781039 2.820248 0.470204 0.000000 0.000000 0.000000 -3.729726 2.213835 -1.283297 -4.291518 0.105863 -0.672881 0.000000 0.000000 0.000000 -4.495133 4.072570 0.407449 -3.686209 2.053557 -3.559615 4.020300 8.470504 -60.412135 0.999709 -28.581070 -6.516453 0.000000 0.000000 0.000000 -3.966272 2.384137 -0.422064 -5.940962 5.312493 10.514257 5.783882 -0.926009 58.038289 3.620957 29.910454 6.554911 0.000000 0.000000 0.000000 
1.695674 91.902023 1.732828 0.000000 0.000000 0.000000 8.500840 -15.395634 0.323267 -30.666136 7.493073 15.558367 38.486586 4.709090 -2.219633 -10.090862 5.778208 -5.571295 0.000000 0.000000 0.000000 8.914285 -6.886079 1.884684 -18.284232 -7.705702 -13.444671 33.012179 -1.092126 0.174005 -15.680982 -5.114680 10.686955 0.000000 0.000000 0.000000 3.329967 -5.780438 0.690943 2.163177 -8.625617 -1.832908 8.559247 3.568093 -0.120173 2.021084 2.716512 0.537470 0.000000 0.000000 0.000000 -3.880133 1.944036 -1.075094 -4.473552 -0.047414 -0.604686 0.000000 0.000000 0.000000 -4.796460 3.990366 0.261946 -3.810593 1.763640 -4.105277 3.713255 8.804441 -60.203780 0.829446 -28.001247 -6.675387 0.000000 0.000000 0.000000 -3.909672 2.126992 -0.385727 -5.407985 4.609724 10.470589 5.854063 -0.461858 58.195165 3.533846 29.956738 6.502954 0.000000 0.000000 0.000000 
2.479538 91.756004 2.279259 0.000000 0.000000 0.000000 8.492159 -15.215730 0.054138 -30.758254 7.635350 15.343359 38.246382 4.707475 -2.060416 -10.254699 5.710163 -5.347027 0.000000 0.000000 0.000000 8.551948 -7.553534 1.565773 -18.739596 -7.763508 -13.820349 32.518131 -0.964761 0.242968 -15.960887 -5.048695 10.848345 0.000000 0.000000 0.000000 3.748103 -5.198063 1.040716 2.885845 -8.294741 -1.859027 8.564796 3.651495 -0.073300 1.904287 2.698773 0.583306 0.000000 0.000000 0.000000 -4.069533 1.739513 -0.773791 -4.642954 -0.218083 -0.528889 0.000000 0.000000 0.000000 -4.937232 4.003456 0.355963 -3.714192 2.298989 -4.684753 4.638353 10.133812 -59.984559 0.496670 -27.803019 -6.653090 0.000000 0.000000 0.000000 -3.847709 2.096609 -0.365904 -5.511084 4.064556 10.053189 5.943214 -0.145428 58.832306 3.758053 30.334588 6.446296 0.000000 0.000000 0.000000 
2.855324 91.798988 2.862841 0.000000 0.000000 0.000000 8.567801 -14.771840 -0.205358 -30.554954 7.839552 15.086638 37.847318 4.664227 -1.911376 -10.665592 5.617729 -5.166639 0.000000 0.000000 0.000000 8.760519 -7.605395 1.198840 -18.429099 -7.738708 -14.227967 32.730485 -0.947508 0.354225 -15.814132 -5.068535 11.038732 0.000000 0.000000 0.000000 3.686111 -4.078958 0.907199 2.994496 -8.315725 -2.080038 8.670641 3.344182 -0.233180 1.800775 2.518600 0.662067 0.000000 0.000000 0.000000 -3.997092 1.431355 -0.651291 -4.649152 -0.310052 -0.424272 0.000000 0.000000 0.000000 -4.991988 3.753681 0.365516 -3.835598 2.490507 -4.838804 4.376718 10.360631 -60.005637 0.620571 -28.595629 -6.312518 0.000000 0.000000 0.000000 -3.959270 1.886450 -0.396571 -5.323755 3.040201 10.749051 6.681268 0.065186 59.315603 3.462702 32.569320 6.587211 0.000000 0.000000 0.000000 
3.184369 91.729347 2.726458 0.000000 0.000000 0.000000 8.920065 -15.270466 -0.410878 -30.145938 7.899670 14.774736 38.451465 4.605965 -1.932175 -10.304385 5.547627 -5.222185 0.000000 0.000000 0.000000 8.895045 -7.123567 1.106005 -18.160915 -7.621161 -14.242848 32.383389 -0.776075 0.459569 -16.044598 -4.968990 11.303170 0.000000 0.000000 0.000000 3.823380 -4.509450 1.096759 4.458000 -5.661408 -2.561230 9.010515 3.345819 -0.099926 1.893908 2.396665 0.682735 0.000000 0.000000 0.000000 -4.027809 1.205403 -0.602486 -4.796628 -0.435189 -0.403405 0.000000 0.000000 0.000000 -4.973775 3.666301 0.392906 -3.930662 2.381902 -5.468310 5.227329 10.624166 -60.426130 0.092108 -28.275503 -6.453238 0.000000 0.000000 0.000000 -3.584997 1.709522 -0.539156 -5.272478 2.298604 10.207769 7.002721 0.710009 59.421778 3.881790 34.668708 6.201094 0.000000 0.000000 0.000000 
3.909374 91.644821 2.689253 0.000000 0.000000 0.000000 8.794692 -15.461368 -0.545702 -30.239433 7.867193 14.606891 38.265035 4.919553 -1.885428 -10.475737 5.845261 -4.962382 0.000000 0.000000 0.000000 8.689654 -7.280173 1.103740 -18.282005 -7.625756 -14.187027 31.861624 -0.641051 0.393989 -16.299174 -4.812886 11.250139 0.000000 0.000000 0.000000 3.192312 -3.977063 0.969462 4.801459 -6.291022 -2.449698 8.690705 3.354305 -0.127747 1.741080 2.233537 0.677924 0.000000 0.000000 0.000000 -4.268222 0.870042 -0.574034 -4.784595 -0.591699 -0.359438 0.000000 0.000000 0.000000 -4.899070 3.459347 0.333517 -3.862682 1.952611 -5.925949 5.026204 10.302458 -60.474317 0.367055 -28.297590 -6.145783 0.000000 0.000000 0.000000 -3.486843 1.489633 -0.617363 -4.909414 1.872656 10.084943 5.518185 0.867340 59.099701 3.539680 35.528568 6.012551 0.000000 0.000000 0.000000 
